<?xml version="1.0" encoding="UTF-8"?>
<svg id="Layer_1" data-name="Layer 1" xmlns="http://www.w3.org/2000/svg" xmlns:xlink="http://www.w3.org/1999/xlink" viewBox="0 0 256 256">
  <defs>
    <style>
      .cls-1 {
        fill: none;
      }

      .cls-2 {
        clip-path: url(#clippath);
      }

      .cls-3 {
        fill: #ef3e42;
      }

      .cls-4 {
        fill: #221f1f;
      }
    </style>
    <clipPath id="clippath">
      <rect class="cls-1" x="21.19" y="65.93" width="213.63" height="124.14"/>
    </clipPath>
  </defs>
  <g class="cls-2">
    <path class="cls-3" d="M228.37,68.47c1.51-.61,3.05-1.23,4.59-1.84-.62-.4-1.32-.7-2.12-.7h-78.11c-2.19,0-3.97,1.78-3.97,3.97v41.64c13.74-11.9,46.53-29.44,79.62-43.07"/>
    <path class="cls-3" d="M227.88,70.35c-21.4,8.81-38.08,20.23-38.31,25.16-.39,8.1,30.48,1.29,45.24,2.67v-28.28c0-.75-.27-1.41-.63-2.02-1.85,.68-3.94,1.49-6.3,2.46"/>
    <path class="cls-3" d="M192.47,127.5c.03-6.93-29.97-1.44-43.71-3.01v22.97c0,2.19,1.78,3.97,3.97,3.97h5.67c19.78-8.93,33.84-19.13,34.08-23.94"/>
    <path class="cls-3" d="M162.86,151.44h67.97c2.19,0,3.98-1.78,3.98-3.97v-35.48c-13.91,11.21-44.42,27.37-71.95,39.45"/>
    <path class="cls-4" d="M21.5,188.23l-.2-.15v-5.11l.88,1.13c1.32,1.68,2.91,2.55,4.59,2.55,1.88,0,2.56-1.13,2.57-1.88,.06-1.54-1.74-2.61-3.84-3.86-2.03-1.23-4.3-2.76-4.31-5.65,0-1.65,.62-3.07,1.73-4.04,1.11-.97,2.66-1.49,4.48-1.49,1.54,0,3.08,.48,4.48,1.41l.22,.14v4.49l-.84-.8c-1.52-1.44-2.93-1.82-4.08-1.82-1.59,.02-2.49,.78-2.49,1.74-.07,1.35,1.71,2.26,3.83,3.46,2.05,1.19,4.32,2.84,4.32,6.11,0,3.22-2.49,5.6-5.78,5.6h-.03c-2.12,0-3.91-.6-5.55-1.84"/>
    <path class="cls-4" d="M60.84,189.83l-2.26-5.15h-7.72l-2.28,5.15h-3.83l8.51-19.95h2.56l8.87,19.95h-3.85Zm-8.59-8.57h4.69s-2.42-5.49-2.42-5.49l-2.27,5.49Z"/>
    <polygon class="cls-4" points="92.65 189.83 80.77 176.14 80.77 189.83 77.24 189.83 77.24 169.98 80.11 169.98 92.16 183.76 92.16 169.98 95.69 169.98 95.69 189.33 95.69 189.83 92.65 189.83"/>
    <polygon class="cls-4" points="125.57 189.8 125.57 175.98 120.44 182.42 120.21 182.42 119.53 182.42 114.39 175.98 114.39 189.8 110.7 189.8 110.7 169.97 113.97 169.97 119.99 177.41 126.03 169.97 129.27 169.97 129.27 189.31 129.27 189.8 125.57 189.8"/>
    <polyline class="cls-4" points="145.11 189.8 145.11 189.8 145.11 169.97 148.81 169.97 148.81 189.31 148.81 189.8"/>
    <polygon class="cls-4" points="179.22 189.78 167.34 176.1 167.34 189.78 163.81 189.78 163.81 169.94 166.68 169.94 178.73 183.71 178.73 169.94 182.26 169.94 182.26 189.28 182.26 189.78 179.22 189.78"/>
    <path class="cls-4" d="M211.12,189.76l-2.25-5.15h-7.73l-2.27,5.15h-3.84l8.52-19.95h2.56l8.87,19.95h-3.85Zm-3.9-8.37l-2.41-5.48-2.27,5.48h4.68Z"/>
  </g>
</svg>